<svg xmlns="http://www.w3.org/2000/svg" viewBox="0 0 1200 820" width="1200" height="820">
  <defs>
    <filter id="noise" x="-5%" y="-5%" width="110%" height="110%">
      <feTurbulence type="fractalNoise" baseFrequency="0.018" numOctaves="4" seed="18"/>
      <feColorMatrix type="saturate" values="0.42"/>
      <feBlend mode="soft-light" in2="SourceGraphic"/>
    </filter>
    <radialGradient id="plain" cx="48%" cy="48%" r="78%">
      <stop offset="0%" stop-color="#53603b"/>
      <stop offset="62%" stop-color="#313a2b"/>
      <stop offset="100%" stop-color="#202820"/>
    </radialGradient>
    <linearGradient id="ridge" x1="0" x2="1" y1="0" y2="1">
      <stop offset="0%" stop-color="#8c7a5a"/>
      <stop offset="45%" stop-color="#4f4335"/>
      <stop offset="100%" stop-color="#211c18"/>
    </linearGradient>
    <linearGradient id="forest" x1="0" x2="1" y1="0" y2="1">
      <stop offset="0%" stop-color="#284d2f"/>
      <stop offset="55%" stop-color="#172d20"/>
      <stop offset="100%" stop-color="#0d1712"/>
    </linearGradient>
    <linearGradient id="valley" x1="0" x2="1" y1="0" y2="1">
      <stop offset="0%" stop-color="#3b4b4d"/>
      <stop offset="50%" stop-color="#263336"/>
      <stop offset="100%" stop-color="#172125"/>
    </linearGradient>
  </defs>
  <rect width="1200" height="820" fill="#101912"/>
  <g filter="url(#noise)">
    <polygon fill="url(#ridge)" points="80,0 520,0 545,105 475,165 340,170 220,145 95,95"/>
    <polygon fill="url(#ridge)" points="520,0 1160,0 1125,115 1010,165 850,145 700,190 545,105"/>
    <polygon fill="url(#forest)" points="0,120 95,95 220,145 200,350 145,430 0,470"/>
    <polygon fill="url(#valley)" points="200,145 340,170 430,240 400,360 220,350"/>
    <polygon fill="url(#plain)" points="340,170 475,165 545,105 700,190 675,350 515,370 400,360 430,240"/>
    <polygon fill="url(#valley)" points="700,190 850,145 1010,165 1000,355 830,375 675,350"/>
    <polygon fill="url(#forest)" points="1010,165 1160,95 1200,130 1200,520 1040,455 1000,355"/>
    <polygon fill="url(#forest)" points="145,430 220,350 400,360 430,480 235,500"/>
    <polygon fill="#3e4231" points="400,360 515,370 675,350 710,485 430,480"/>
    <polygon fill="#3b4235" points="675,350 830,375 1000,355 1040,455 950,505 710,485"/>
    <polygon fill="url(#forest)" points="0,470 145,430 235,500 210,720 120,820 0,820"/>
    <polygon fill="#414a35" points="235,500 430,480 430,610 245,625 210,720"/>
    <polygon fill="#46513a" points="430,480 710,485 720,620 570,650 430,610"/>
    <polygon fill="#3c4733" points="710,485 950,505 1040,455 1005,640 720,620"/>
    <polygon fill="url(#forest)" points="1040,455 1200,520 1200,820 1000,820 1005,640"/>
    <polygon fill="#53633e" points="245,625 430,610 570,650 575,725 360,755 210,720"/>
    <polygon fill="#56683f" points="570,650 720,620 1005,640 1000,735 760,760 575,725"/>
    <polygon fill="url(#ridge)" points="120,820 210,720 360,755 445,820"/>
    <polygon fill="#3d4d36" points="445,820 360,755 575,725 760,760 735,820"/>
    <polygon fill="#313f33" points="735,820 760,760 1000,735 1000,820"/>
  </g>
  <g fill="none" stroke-linecap="round" stroke-linejoin="round">
    <path d="M0 388 C210 350 370 435 555 400 C760 360 930 420 1200 382" stroke="#07121a" stroke-width="36" opacity="0.86"/>
    <path d="M0 388 C210 350 370 435 555 400 C760 360 930 420 1200 382" stroke="#1e5e8e" stroke-width="22" opacity="0.96"/>
    <path d="M0 388 C210 350 370 435 555 400 C760 360 930 420 1200 382" stroke="#77b7dd" stroke-width="4" opacity="0.32"/>
    <path d="M85 520 C275 465 430 510 610 400 C820 270 980 285 1160 210" stroke="#211d17" stroke-width="16" opacity="0.62"/>
    <path d="M85 520 C275 465 430 510 610 400 C820 270 980 285 1160 210" stroke="#a59375" stroke-width="8" opacity="0.74"/>
    <path d="M190 720 C390 660 590 690 770 650 C930 610 1035 645 1160 720" stroke="#1e1b15" stroke-width="12" opacity="0.48"/>
    <path d="M190 720 C390 660 590 690 770 650 C930 610 1035 645 1160 720" stroke="#8c7c64" stroke-width="5" opacity="0.68"/>
  </g>
  <g opacity="0.34" stroke="#c4b68d" stroke-width="2" fill="none">
    <path d="M145 45 l38 18 l44 -11 l58 26 l45 -16"/>
    <path d="M745 52 l58 20 l42 -15 l64 30 l52 -19"/>
    <path d="M146 770 l44 -28 l72 24 l50 -30"/>
  </g>
  <rect width="1200" height="820" fill="none" stroke="#1c2a32" stroke-width="2"/>
</svg>
